# xmcd
#
# Track frame offsets: 
#        150
#        15642
#        48130
#        64045
#        83172
#        98885
#        117182
#        137135
#        152462
#        168250
#        184165
#        205467
#        228432
#        259330
#        275457
#        301007
#
# Disc length: 4473 seconds
#
# Revision: 1
# Processed by: cddbd v1.5.2PL0 Copyright (c) Steve Scherf et al.
# Submitted via: ExactAudioCopy v0.99pb5
#
DISCID=cf117710
DTITLE=Various Artist - Solar Disco Box Set CD2
DYEAR=2004
DGENRE=Disco
TTITLE0=Whispers - And The Beat Goes On
TTITLE1=Dynasty - I Don't Want To Be A Freak (But I Can't Help Myself)
TTITLE2=Shalamar - A Night To Remember
TTITLE3=Collage - Romeo Where's Juliet?
TTITLE4=Midnight Star - Headlines
TTITLE5=Lakeside - Fantastic Voyage
TTITLE6=Sylvers - Take It To The Top
TTITLE7=Shalamar - Take That To The Bank
TTITLE8=Carrie Lucas - Gotta Keep Dancin' (Keep Smiling)
TTITLE9=Shalamar - There It Is
TTITLE10=Whispers - Rock Steady
TTITLE11=Calloway - I Wanna Be Rich
TTITLE12=Lakeside - Raid
TTITLE13=Dynasty - I've Just Begun To Love You
TTITLE14=Whispers - Keep On Lovin' Me
TTITLE15=Various Artist - And On...
EXTD=
EXTT0=
EXTT1=
EXTT2=
EXTT3=
EXTT4=
EXTT5=
EXTT6=
EXTT7=
EXTT8=
EXTT9=
EXTT10=
EXTT11=
EXTT12=
EXTT13=
EXTT14=
EXTT15=
PLAYORDER=
